<?xml version="1.0" standalone="no"?>
<!DOCTYPE svg PUBLIC "-//W3C//DTD SVG 20010904//EN"
 "http://www.w3.org/TR/2001/REC-SVG-20010904/DTD/svg10.dtd">
<svg version="1.0" xmlns="http://www.w3.org/2000/svg"
 width="1024.000000pt" height="1024.000000pt" viewBox="0 0 1024.000000 1024.000000"
 preserveAspectRatio="xMidYMid meet">

<g transform="translate(0.000000,1024.000000) scale(0.100000,-0.100000)"
fill="#000000" stroke="none">
<path d="M5225 9360 c-4 -6 -17 -10 -30 -8 -12 1 -29 -3 -38 -10 -11 -10 -29
-10 -78 -2 -89 14 -169 12 -201 -4 -31 -16 -41 -18 -113 -16 -50 1 -93 -14
-108 -37 -4 -7 -24 -13 -43 -13 -23 0 -57 -13 -101 -40 -36 -21 -81 -44 -99
-50 -19 -7 -34 -16 -34 -21 0 -5 -15 -15 -32 -23 -18 -8 -53 -34 -78 -58 -25
-24 -62 -54 -82 -67 -21 -12 -38 -26 -38 -30 0 -4 -20 -21 -44 -38 -38 -27
-50 -30 -90 -26 -42 5 -46 4 -46 -15 0 -24 -15 -37 -25 -22 -4 7 -12 7 -25 0
-10 -5 -27 -10 -38 -10 -10 0 -40 -11 -66 -25 -26 -14 -56 -25 -67 -25 -12 0
-23 -8 -25 -17 -6 -21 -95 -73 -124 -73 -11 0 -23 -7 -26 -15 -4 -8 -18 -15
-34 -15 -19 0 -33 -8 -44 -25 -9 -14 -21 -25 -27 -25 -5 0 -24 -6 -42 -13 -18
-8 -36 -14 -41 -14 -4 -1 -27 -19 -50 -42 -30 -29 -47 -39 -62 -35 -16 4 -33
-6 -67 -40 -25 -25 -52 -46 -59 -46 -20 0 -58 -42 -58 -64 0 -12 -5 -16 -15
-12 -8 3 -25 -5 -37 -17 -13 -12 -34 -29 -48 -38 -21 -14 -23 -19 -12 -32 12
-14 11 -84 -4 -179 -3 -23 0 -47 10 -66 9 -17 12 -32 7 -34 -8 -3 -13 -77 -12
-192 0 -15 -4 -36 -9 -47 -8 -13 -6 -20 7 -27 15 -9 15 -15 5 -48 -14 -48 -13
-106 2 -116 8 -6 8 -10 0 -15 -15 -10 -19 -293 -4 -293 5 0 10 -20 10 -44 0
-33 6 -49 25 -68 26 -27 48 -101 38 -136 -3 -13 -1 -22 6 -22 6 0 11 -17 11
-38 0 -21 3 -42 6 -45 4 -4 8 -34 9 -68 2 -51 7 -65 25 -79 23 -17 23 -19 7
-57 -14 -37 -14 -41 0 -56 13 -13 14 -21 6 -39 -15 -35 36 -355 60 -373 16
-12 8 -51 -17 -87 -9 -12 -16 -32 -16 -43 0 -11 -15 -32 -34 -47 -26 -21 -39
-43 -51 -85 -9 -32 -23 -63 -31 -69 -8 -7 -18 -29 -21 -50 -3 -22 -11 -46 -19
-54 -12 -15 -13 -23 -16 -102 -1 -20 -4 -37 -7 -36 -19 2 -24 -3 -12 -11 12
-8 12 -12 -3 -26 -11 -11 -16 -30 -15 -49 3 -33 -6 -78 -23 -113 -6 -12 -8
-38 -5 -57 4 -24 1 -39 -9 -47 -8 -7 -13 -18 -10 -25 3 -7 -1 -26 -9 -41 -8
-15 -15 -54 -15 -85 0 -31 -5 -69 -11 -85 -7 -15 -13 -37 -15 -48 -23 -137
-35 -250 -37 -346 -2 -63 -6 -120 -10 -126 -4 -5 -2 -25 3 -42 5 -18 5 -42 1
-54 -4 -12 -5 -62 -2 -110 3 -49 3 -91 0 -93 -14 -9 -15 -84 -1 -89 11 -4 12
-8 2 -19 -8 -11 -8 -20 -1 -35 15 -26 14 -78 -1 -83 -7 -3 -8 -9 -3 -18 12
-19 14 -69 4 -76 -14 -8 -11 -52 4 -57 9 -3 9 -11 0 -35 -9 -25 -9 -34 1 -39
8 -5 15 -41 19 -95 4 -51 16 -117 31 -162 15 -42 26 -85 26 -95 0 -10 7 -21
15 -25 8 -3 15 -17 15 -31 0 -14 7 -28 15 -31 11 -5 15 -21 15 -60 0 -39 4
-56 15 -60 8 -4 15 -15 15 -25 0 -10 8 -27 18 -37 9 -10 22 -27 28 -38 6 -10
28 -27 50 -38 21 -10 44 -25 50 -34 6 -8 16 -12 22 -8 6 3 14 2 17 -4 4 -6 25
-23 48 -37 35 -22 55 -27 118 -28 42 -1 81 -5 87 -9 6 -3 30 0 54 8 43 15 57
10 58 -21 0 -7 5 -13 10 -13 6 0 10 -16 10 -35 0 -20 6 -51 14 -70 8 -18 12
-44 9 -56 -4 -15 0 -26 12 -35 11 -8 15 -20 11 -30 -4 -12 -2 -15 9 -11 18 8
32 -13 15 -23 -10 -6 -10 -15 0 -46 7 -22 18 -46 24 -54 7 -8 23 -48 36 -89
18 -55 30 -75 47 -82 16 -6 23 -17 23 -36 0 -17 8 -33 20 -40 11 -7 26 -37 35
-66 8 -29 26 -64 40 -79 25 -28 33 -44 15 -33 -5 3 -10 -1 -10 -10 0 -9 5 -13
10 -10 6 4 10 -5 10 -19 0 -16 6 -26 15 -26 8 0 15 -4 15 -10 0 -5 -5 -10 -11
-10 -7 0 -8 -7 -4 -17 4 -10 12 -37 17 -60 6 -28 15 -43 25 -43 11 0 14 -6 10
-21 -3 -12 0 -22 8 -25 11 -4 11 -12 4 -31 -7 -20 -6 -30 7 -44 11 -12 18 -44
21 -98 l5 -81 -44 0 c-38 0 -47 -4 -56 -25 -11 -25 -32 -34 -32 -15 0 6 -9 10
-20 10 -11 0 -20 -4 -20 -9 0 -5 -8 -7 -19 -4 -10 3 -37 -7 -60 -21 -23 -15
-46 -24 -51 -21 -5 3 -11 -4 -15 -15 -4 -13 -15 -20 -32 -20 -19 0 -24 -4 -19
-16 3 -9 -2 -28 -13 -42 -19 -28 -27 -142 -10 -142 5 0 9 -7 9 -15 0 -8 -5
-15 -12 -15 -9 0 -9 -3 0 -12 7 -7 12 -38 12 -69 0 -44 4 -58 17 -63 11 -5 13
-10 6 -17 -7 -7 -7 -20 0 -42 21 -68 26 -77 41 -71 10 4 19 -9 30 -44 17 -51
39 -69 89 -74 15 -2 26 -6 25 -10 -2 -3 10 -16 25 -28 21 -17 31 -19 41 -11
10 8 16 8 25 -3 6 -8 21 -12 31 -9 11 3 26 1 33 -5 11 -9 54 -12 182 -11 22 1
54 -2 71 -6 32 -7 217 29 240 46 5 5 20 6 32 2 13 -3 22 -1 22 6 0 6 10 11 21
11 42 0 99 23 105 42 3 11 17 24 30 30 14 7 23 17 20 25 -3 7 3 18 13 25 27
20 35 39 20 49 -12 8 -12 10 0 18 8 5 15 18 16 28 0 10 4 24 9 31 4 6 8 36 8
64 0 29 4 58 9 63 12 16 17 214 6 218 -7 2 -6 15 1 37 7 18 12 64 12 103 0 38
5 87 12 108 9 33 9 42 -5 57 -21 23 -21 36 -2 66 14 21 14 24 0 29 -19 8 -20
33 -1 44 7 4 16 24 20 43 17 86 22 147 16 171 -5 16 -2 32 7 44 7 11 13 38 12
60 -2 22 3 50 10 63 8 15 9 28 2 40 -11 20 4 77 28 106 9 11 11 29 7 56 -3 22
-2 40 3 40 5 0 8 6 8 12 -2 21 34 128 43 128 4 0 11 12 14 26 10 40 100 78
163 68 65 -9 86 -21 80 -45 -3 -10 -1 -19 4 -19 5 0 9 -11 9 -23 0 -13 9 -32
19 -41 11 -10 23 -32 27 -50 3 -17 11 -36 16 -43 5 -7 12 -59 14 -115 6 -172
13 -301 18 -348 2 -25 1 -54 -3 -65 -5 -11 -4 -28 1 -37 5 -12 5 -26 -2 -39
-9 -17 -8 -23 5 -33 15 -11 16 -15 4 -34 -10 -17 -11 -28 -3 -50 8 -20 8 -35
1 -47 -5 -9 -7 -35 -4 -56 3 -22 1 -42 -4 -45 -5 -3 -7 -10 -3 -15 5 -9 8 -38
18 -174 2 -27 4 -84 5 -126 1 -75 2 -77 31 -89 33 -14 38 -25 15 -34 -10 -4
-14 -18 -13 -50 2 -38 6 -46 26 -51 16 -4 22 -11 18 -20 -3 -8 -8 -21 -12 -29
-3 -7 6 -27 20 -44 15 -16 26 -36 26 -42 0 -7 15 -32 33 -56 25 -34 39 -43 61
-44 16 0 26 -3 23 -7 -11 -10 13 -33 34 -33 11 0 19 -5 19 -10 0 -6 8 -13 18
-17 9 -3 24 -12 34 -20 21 -18 125 -46 139 -37 6 4 15 1 19 -7 7 -10 12 -10
23 -1 10 9 27 9 70 0 44 -9 67 -9 106 1 29 7 57 9 68 4 22 -10 54 -10 70 0 6
4 52 9 102 11 49 3 103 11 118 19 15 8 34 12 41 10 24 -9 147 30 170 54 13 12
30 23 39 23 10 0 14 6 10 20 -3 13 0 20 10 20 10 0 13 7 9 23 -3 12 -3 16 0
10 8 -19 27 -16 20 3 -3 9 4 29 16 47 18 25 22 47 25 116 1 47 5 109 9 138 5
42 3 55 -10 69 -12 12 -14 20 -7 27 18 18 13 67 -6 74 -10 3 -27 16 -39 30
-11 13 -31 25 -45 27 -13 1 -45 13 -72 25 -26 12 -51 20 -56 17 -5 -3 -14 1
-21 9 -7 8 -24 15 -39 15 -40 0 -71 26 -71 60 0 15 -5 30 -10 32 -7 2 -7 14
-1 36 5 18 7 48 4 67 -3 20 -1 41 6 49 6 7 9 20 5 29 -3 8 1 26 9 39 9 13 20
50 26 82 6 33 17 66 25 75 22 26 30 116 11 131 -14 11 -13 14 5 27 11 8 20 20
20 27 0 8 7 17 16 20 13 5 15 15 10 48 -4 24 -3 44 3 47 15 10 50 194 39 208
-6 7 -3 24 8 45 12 22 18 57 18 104 1 45 6 77 15 88 11 13 12 22 2 42 -15 34
-14 60 4 77 8 8 11 18 7 22 -4 4 7 4 24 1 22 -5 35 -2 44 9 15 18 30 20 30 2
0 -26 186 10 221 43 9 8 31 23 49 33 26 14 31 20 20 27 -11 7 -11 11 -1 24 7
8 21 18 32 21 10 4 19 13 19 21 0 8 4 14 9 14 14 0 53 71 47 87 -3 7 1 16 9
19 8 4 15 14 15 25 0 10 11 28 23 41 38 37 78 95 76 110 -1 7 9 39 23 70 15
31 27 74 29 95 1 21 8 48 15 60 7 11 16 51 20 87 4 40 12 67 20 70 17 6 18 33
3 38 -9 3 -9 10 0 26 8 16 9 33 2 58 -8 29 -7 40 4 51 17 17 21 118 5 108 -14
-8 -13 39 2 87 9 31 9 41 -1 47 -9 6 -10 24 -4 72 9 76 7 101 -11 111 -9 5
-12 19 -7 45 5 33 6 92 2 180 -1 12 -6 25 -11 28 -6 3 -10 42 -10 85 0 43 -5
82 -10 85 -6 3 -7 17 -4 31 3 13 2 24 -3 24 -6 0 -15 11 -21 25 -7 14 -7 25
-2 25 5 0 7 23 4 53 -11 108 -24 161 -45 184 -17 17 -19 26 -10 36 8 10 8 22
0 46 -6 17 -9 40 -6 50 2 10 -6 59 -19 107 -13 49 -24 101 -24 117 0 19 -5 27
-17 27 -14 0 -15 2 -4 9 8 6 12 18 8 31 -4 17 2 29 24 48 17 13 28 30 25 37
-2 7 5 32 17 56 16 33 22 64 24 124 2 100 6 134 22 163 7 12 11 46 11 75 -1
29 3 70 8 91 6 22 9 43 6 47 -2 4 5 26 15 50 11 24 25 71 31 104 7 33 16 68
21 77 5 10 5 19 0 22 -5 3 -3 22 4 43 11 31 11 41 1 53 -28 32 -27 67 0 40 7
-7 9 11 8 53 -1 35 3 65 9 69 15 9 20 117 7 133 -8 9 -8 32 1 79 6 36 9 88 7
116 -1 27 0 50 3 50 4 0 18 33 33 73 26 72 35 147 16 147 -6 0 -6 9 0 26 14
35 13 171 -1 180 -7 4 -8 20 -5 43 4 20 8 109 10 197 2 89 7 171 11 183 3 11
2 21 -3 21 -5 0 -8 26 -8 58 1 31 -2 77 -7 100 -6 30 -5 48 2 55 6 6 11 17 11
24 0 8 11 25 25 37 23 22 25 27 16 67 -5 23 -17 46 -25 51 -10 6 -16 23 -16
47 0 30 -6 42 -25 55 -14 9 -25 25 -25 36 0 12 -13 25 -35 35 -18 9 -46 32
-61 52 -15 19 -32 32 -39 29 -18 -7 -94 33 -118 62 -17 20 -173 101 -257 132
-19 8 -46 22 -59 32 -14 11 -34 18 -46 16 -12 -1 -32 4 -46 13 -13 9 -47 19
-76 22 -29 3 -69 15 -90 26 -56 29 -172 44 -227 29 -39 -10 -46 -9 -62 6 -17
17 -18 17 -31 0 -11 -16 -14 -16 -30 -2 -10 8 -29 18 -43 21 -14 4 -49 29 -78
57 -28 27 -58 50 -66 50 -8 0 -18 5 -21 10 -3 6 -15 10 -26 10 -10 0 -19 4
-19 9 0 23 -68 51 -119 50 -34 -1 -56 3 -64 13 -7 8 -24 22 -39 31 -22 14 -32
15 -47 6 -15 -10 -24 -8 -50 10 -17 12 -39 21 -48 20 -10 -1 -26 1 -35 5 -9 4
-26 2 -38 -4 -18 -10 -24 -9 -31 1 -6 10 -34 14 -101 14 -51 0 -100 4 -109 8
-10 5 -20 4 -24 -3z m-51 -45 c-4 -8 -8 -15 -10 -15 -2 0 -4 7 -4 15 0 8 4 15
10 15 5 0 7 -7 4 -15z m184 -4 c3 -8 -1 -12 -9 -9 -7 2 -15 10 -17 17 -3 8 1
12 9 9 7 -2 15 -10 17 -17z m-265 -102 c32 12 183 12 215 0 13 -5 64 -10 113
-11 50 -1 92 -5 95 -9 3 -5 11 -6 18 -3 8 3 28 -2 44 -10 20 -10 42 -14 62
-10 22 5 34 2 43 -10 7 -9 21 -16 32 -15 38 4 55 -1 55 -16 0 -8 7 -15 16 -15
9 0 28 -6 42 -14 15 -7 40 -20 57 -27 16 -8 42 -27 58 -42 16 -16 34 -26 42
-23 10 3 20 -6 30 -24 10 -19 23 -30 36 -30 25 0 109 -87 109 -113 0 -26 19
-59 31 -52 5 4 9 -5 9 -18 0 -13 8 -35 18 -48 11 -13 25 -52 32 -86 8 -35 18
-63 22 -63 4 0 8 -13 8 -29 0 -16 7 -37 15 -45 11 -10 15 -31 14 -60 -2 -25 3
-51 10 -60 10 -12 11 -19 2 -30 -9 -11 -7 -27 8 -73 10 -33 17 -72 14 -90 -3
-20 1 -40 11 -55 20 -28 21 -48 2 -48 -11 0 -13 -10 -9 -40 3 -24 2 -40 -4
-40 -13 0 -34 25 -32 36 10 41 -59 284 -95 335 -13 19 -42 70 -64 114 -43 84
-151 218 -180 223 -9 2 -30 18 -47 36 -35 39 -217 142 -328 186 -118 47 -256
61 -482 49 -252 -13 -365 -31 -365 -60 0 -6 -7 -9 -15 -5 -18 7 -96 -20 -110
-38 -5 -7 -22 -16 -36 -19 -15 -4 -37 -18 -50 -32 -13 -13 -32 -25 -42 -25
-10 0 -38 -15 -62 -32 -33 -25 -43 -38 -39 -53 4 -14 3 -16 -4 -7 -14 21 -59
-6 -144 -86 -64 -60 -158 -185 -158 -209 0 -5 -16 -26 -35 -47 -19 -21 -35
-49 -35 -62 0 -13 -6 -27 -13 -31 -19 -12 -39 -180 -27 -223 7 -23 7 -45 0
-65 -17 -51 3 -460 29 -610 6 -33 11 -61 11 -62 0 -1 6 0 13 2 8 4 13 -10 14
-47 2 -29 4 -71 5 -93 3 -34 0 -40 -17 -43 -37 -5 -54 19 -59 83 -3 33 -8 93
-12 133 -3 39 -11 72 -16 72 -5 0 -8 25 -7 56 2 36 -2 58 -10 63 -10 6 -10 17
-2 47 16 63 17 154 1 164 -12 7 -12 13 -1 33 7 13 11 37 10 53 -2 16 1 35 5
43 5 7 4 16 -1 20 -5 3 -8 38 -6 76 2 39 4 96 3 127 -1 32 8 92 18 135 11 43
20 89 20 103 2 54 10 97 25 130 8 19 18 57 22 83 4 27 14 51 21 54 8 3 19 25
25 49 6 24 17 49 25 55 8 6 14 24 14 40 0 23 5 29 21 29 12 0 23 8 26 20 3 11
9 20 13 20 13 0 130 82 130 91 0 5 18 16 39 25 22 9 47 27 56 40 8 13 22 24
31 24 8 0 28 14 44 30 16 17 35 30 42 30 7 0 34 11 60 25 26 14 56 25 66 25
11 0 25 7 32 15 7 8 19 15 26 15 8 0 14 5 14 10 0 6 18 10 39 10 22 0 41 5 43
11 2 7 36 13 83 16 43 2 90 9 104 16 17 9 37 10 57 5 19 -5 43 -4 57 1z m-603
-119 c0 -5 -4 -10 -10 -10 -5 0 -10 5 -10 10 0 6 5 10 10 10 6 0 10 -4 10 -10z
m1860 -177 c21 -8 38 -9 44 -3 6 6 17 5 30 -2 12 -6 39 -15 61 -20 22 -5 57
-13 77 -17 20 -4 44 -16 53 -25 12 -12 26 -15 46 -11 16 4 29 3 29 -2 0 -10
70 -49 81 -46 4 2 35 -13 69 -32 34 -19 68 -35 74 -35 7 0 21 -9 31 -20 10
-12 24 -19 31 -16 7 3 16 -4 19 -15 4 -11 12 -18 18 -17 7 2 26 -7 44 -20 17
-12 45 -25 62 -28 17 -4 37 -17 46 -31 9 -13 21 -23 28 -20 12 4 67 -54 67
-72 0 -13 -46 -15 -54 -2 -3 4 -16 6 -29 4 -14 -3 -43 5 -65 16 -28 14 -42 17
-44 9 -3 -8 -9 -8 -19 -2 -8 5 -48 9 -89 9 -73 0 -75 1 -78 25 -7 63 -10 67
-58 75 -26 3 -50 2 -57 -3 -8 -7 -32 -5 -70 5 -45 11 -61 12 -73 3 -11 -10
-19 -9 -39 4 -29 19 -65 21 -65 4 0 -6 -6 -4 -13 7 -10 13 -22 16 -42 13 -44
-9 -85 26 -85 72 0 30 -5 39 -25 48 -19 9 -25 19 -25 44 -1 18 -7 44 -15 58
-14 25 -21 84 -7 65 4 -5 23 -16 42 -22z m-1030 7 c0 -5 -2 -10 -4 -10 -3 0
-8 5 -11 10 -3 6 -1 10 4 10 6 0 11 -4 11 -10z m206 -61 c34 -16 68 -29 76
-29 8 0 35 -13 61 -30 26 -16 57 -32 70 -35 12 -4 50 -26 82 -51 33 -24 68
-47 77 -50 9 -3 20 -13 23 -22 3 -9 20 -24 38 -33 22 -11 46 -39 79 -95 25
-43 62 -104 81 -134 34 -55 80 -174 93 -240 3 -19 9 -39 12 -44 3 -5 6 -24 8
-43 2 -18 7 -39 11 -46 4 -6 9 -21 10 -32 1 -11 5 -33 8 -50 9 -59 13 -341 5
-384 -5 -28 -4 -51 2 -61 14 -21 -6 -115 -32 -155 -11 -17 -20 -37 -20 -46 0
-8 -21 -48 -46 -87 -31 -50 -52 -72 -66 -72 -10 0 -29 -5 -40 -11 -32 -17 -50
7 -21 29 41 33 125 156 140 206 27 92 37 283 28 491 -4 92 -31 239 -66 357
-24 80 -164 307 -191 307 -9 1 -25 17 -34 37 -10 21 -31 42 -51 52 -18 9 -33
19 -33 24 0 4 -18 17 -40 28 -22 11 -71 41 -107 65 -37 25 -74 45 -83 45 -8 0
-32 11 -51 24 -20 14 -47 28 -60 31 -60 15 -210 30 -223 23 -8 -5 -17 -4 -21
2 -4 6 -11 8 -16 5 -5 -4 -39 -8 -76 -9 -170 -9 -333 -36 -408 -70 -118 -52
-157 -72 -168 -84 -6 -8 -20 -18 -32 -23 -36 -17 -65 -36 -88 -56 -12 -11 -27
-22 -34 -24 -21 -7 -113 -100 -113 -114 0 -8 -9 -19 -20 -25 -11 -6 -20 -17
-20 -24 0 -7 -8 -24 -18 -37 -11 -13 -24 -39 -30 -57 -6 -19 -25 -49 -42 -68
-16 -19 -30 -45 -30 -57 0 -12 -7 -33 -16 -45 -8 -12 -13 -26 -10 -31 3 -5 0
-14 -8 -20 -19 -16 -25 -59 -25 -186 -1 -242 12 -358 59 -520 4 -16 11 -45 15
-62 4 -18 11 -35 16 -38 5 -4 9 -23 9 -43 0 -20 9 -57 20 -81 11 -24 18 -46
15 -49 -3 -3 -21 2 -41 12 -29 13 -35 21 -31 38 3 11 0 30 -8 42 -8 11 -24 70
-36 131 -11 60 -26 121 -31 135 -10 27 -16 184 -19 506 -1 177 1 215 15 242 9
17 16 40 16 50 0 11 7 26 16 33 9 7 30 36 46 64 45 77 77 116 154 189 70 67
101 89 197 141 26 14 47 29 47 34 0 4 19 16 43 25 24 9 56 30 72 46 16 17 39
30 52 30 13 0 50 9 83 21 65 22 89 25 325 34 82 3 151 8 153 9 1 2 44 1 95 -1
75 -4 103 -10 153 -34z m131 -11 c-3 -8 -6 -5 -6 6 -1 11 2 17 5 13 3 -3 4
-12 1 -19z m-222 -88 c3 -5 1 -10 -4 -10 -6 0 -11 5 -11 10 0 6 2 10 4 10 3 0
8 -4 11 -10z m36 -53 c36 -13 86 -35 110 -49 25 -15 69 -38 99 -52 50 -23 199
-145 209 -170 2 -6 17 -23 33 -38 15 -14 28 -33 28 -41 0 -8 6 -17 13 -20 8
-3 30 -37 51 -76 20 -38 41 -73 47 -76 5 -4 7 -15 4 -25 -3 -9 6 -54 20 -98
29 -91 43 -254 35 -390 -3 -46 -2 -92 2 -102 11 -30 -19 -181 -42 -212 -11
-15 -20 -32 -20 -37 0 -6 -33 -54 -74 -107 -41 -54 -72 -102 -70 -106 6 -9 -9
-16 -51 -23 -16 -2 -43 -7 -58 -11 -17 -4 -38 -1 -52 6 -14 8 -40 10 -66 6
-44 -6 -51 -6 -91 -4 -13 1 -43 0 -68 -1 -25 -1 -139 -1 -255 2 -174 3 -213 1
-227 -11 -15 -13 -18 -13 -18 -1 0 10 -15 14 -58 14 -31 0 -63 -4 -70 -8 -7
-5 -19 -4 -27 3 -10 9 -20 7 -40 -6 -22 -14 -31 -15 -46 -6 -10 7 -25 12 -33
12 -7 0 -23 22 -34 49 -14 34 -30 55 -51 66 -17 8 -31 19 -31 24 0 8 -60 19
-110 22 -35 1 -115 -30 -135 -53 -12 -14 -33 -28 -47 -31 -20 -5 -28 -2 -38
18 -7 14 -17 25 -22 25 -4 0 -8 8 -8 17 0 9 -11 48 -24 87 -31 88 -67 300 -73
426 -2 57 -9 98 -16 102 -9 6 -8 11 3 18 12 8 13 13 3 29 -9 14 -10 28 -3 45
5 13 12 53 15 88 7 64 47 168 65 168 6 0 10 11 10 25 0 14 4 25 10 25 5 0 18
19 30 43 75 154 129 208 317 320 33 20 64 37 68 37 4 0 35 13 69 29 136 63
251 80 516 74 112 -2 146 -6 201 -26z m-1544 -26 c-2 -21 -13 -51 -23 -66 -10
-16 -20 -40 -22 -53 -2 -14 -7 -33 -13 -43 -5 -10 -9 -29 -9 -42 0 -30 -34
-47 -110 -54 -63 -7 -90 -18 -90 -38 0 -9 -16 -16 -45 -21 -25 -3 -49 -13 -54
-22 -8 -14 -15 -13 -62 6 -70 27 -128 36 -160 23 -35 -13 -60 2 -30 18 11 7
21 18 21 25 0 14 46 49 65 51 26 3 124 47 136 62 6 7 22 13 35 13 13 0 24 4
24 10 0 5 28 24 63 41 34 17 76 42 94 55 17 13 42 24 55 24 13 0 41 12 63 25
57 36 69 33 62 -14z m2723 -197 c130 -7 155 -15 145 -47 -13 -44 -17 -115 -7
-134 7 -13 8 -23 1 -30 -6 -6 -5 -21 2 -42 7 -19 8 -36 3 -40 -14 -10 -17 -71
-4 -71 12 0 11 -15 -6 -84 -5 -21 -3 -32 9 -41 16 -11 16 -16 1 -60 -13 -37
-14 -55 -6 -81 5 -19 7 -34 4 -34 -4 0 -7 -35 -6 -78 0 -42 -3 -92 -8 -109 -7
-24 -6 -41 5 -63 9 -17 11 -32 6 -36 -14 -9 -11 -100 5 -113 9 -8 12 -25 9
-54 -6 -48 30 -147 52 -147 7 0 15 -7 19 -15 3 -8 14 -15 24 -15 11 0 25 -7
32 -15 7 -9 27 -16 44 -16 55 0 180 -9 204 -14 22 -5 22 -6 17 -163 -9 -301
-16 -368 -42 -431 -9 -20 -12 -48 -9 -66 4 -20 0 -46 -11 -71 -9 -21 -17 -43
-18 -49 -1 -5 -8 -26 -17 -45 -9 -19 -19 -62 -23 -95 -4 -33 -11 -70 -16 -82
-5 -13 -4 -47 2 -78 8 -42 7 -61 -3 -82 -20 -41 -34 -38 -30 5 3 28 -1 44 -14
57 -11 11 -17 29 -15 47 2 20 -2 28 -14 28 -13 0 -15 7 -9 36 5 28 2 40 -16
59 -12 13 -19 28 -16 34 4 5 -3 26 -14 46 -12 21 -18 45 -15 56 4 11 2 19 -4
19 -6 0 -11 14 -11 30 0 41 -22 83 -53 99 -17 9 -23 19 -20 35 3 13 -2 28 -11
35 -9 8 -16 24 -16 37 0 12 -4 25 -9 28 -5 3 -12 18 -16 33 -3 16 -15 37 -24
48 -10 11 -24 35 -32 53 -8 17 -19 32 -26 32 -7 0 -10 7 -6 16 8 23 -37 115
-56 112 -10 -2 -17 8 -22 30 -4 18 -16 43 -27 55 -11 12 -25 32 -31 44 -6 12
-19 24 -30 28 -21 6 -71 109 -71 145 0 13 11 33 24 45 24 22 25 30 27 143 1
66 -2 125 -6 132 -4 6 -4 44 0 84 6 57 4 80 -9 104 -18 35 -21 72 -5 72 5 0
10 21 11 48 2 172 5 262 10 267 3 3 -1 24 -9 47 -8 23 -12 52 -9 64 4 13 1 26
-5 30 -7 4 -9 24 -6 55 4 28 2 49 -3 49 -5 0 -7 6 -4 14 3 8 1 17 -5 21 -12 7
-15 54 -5 80 5 13 15 16 43 11 20 -4 88 -9 151 -12z m-3328 -36 c-9 -9 -12 -7
-12 12 0 19 3 21 12 12 9 -9 9 -15 0 -24z m3688 -83 c6 4 17 1 25 -5 9 -7 28
-10 44 -7 20 4 33 1 42 -9 8 -10 21 -13 36 -9 13 3 23 1 23 -5 0 -6 20 -19 45
-30 43 -18 44 -20 34 -46 -5 -15 -7 -40 -4 -56 4 -16 1 -60 -6 -99 -9 -49 -9
-73 -2 -77 7 -5 8 -32 4 -80 -4 -40 -3 -76 2 -79 10 -6 4 -129 -8 -155 -4 -11
-3 -18 4 -18 8 0 10 -11 6 -32 -10 -53 -11 -238 -2 -238 5 0 6 -7 3 -16 -15
-40 -19 -67 -7 -60 17 11 13 -6 -8 -33 -15 -20 -23 -23 -57 -17 -21 4 -71 8
-111 9 -60 2 -75 6 -97 26 -16 15 -26 35 -26 52 0 15 -7 58 -16 95 -11 50 -12
74 -5 97 8 22 8 34 0 44 -9 10 -9 20 0 39 15 33 14 86 -3 159 -13 53 -13 60 2
73 12 9 13 15 5 18 -7 3 -10 11 -8 17 11 31 11 257 1 260 -14 5 -12 94 4 141
13 40 38 60 57 44 7 -5 17 -7 23 -3z m-1000 -29 c0 -3 -4 -8 -10 -11 -5 -3
-10 -1 -10 4 0 6 5 11 10 11 6 0 10 -2 10 -4z m-2204 -73 c-14 -48 -21 -104
-19 -163 1 -36 2 -74 2 -85 -2 -112 3 -242 10 -282 6 -30 6 -50 0 -54 -6 -4
-5 -16 2 -33 9 -20 10 -29 2 -34 -8 -5 -9 -26 -2 -72 6 -36 11 -89 11 -117 1
-29 5 -53 9 -53 5 0 9 -45 9 -99 0 -58 4 -102 10 -106 16 -10 1 -45 -37 -90
-19 -22 -37 -52 -40 -68 -3 -15 -10 -30 -15 -33 -5 -3 -43 -7 -86 -8 -42 -2
-85 -6 -95 -11 -14 -6 -20 -2 -24 15 -5 19 -11 21 -37 16 -63 -13 -118 -78
-123 -146 -1 -19 -5 -70 -9 -112 -6 -68 -4 -78 11 -84 13 -5 14 -9 4 -15 -18
-11 17 -50 37 -42 27 10 14 -35 -16 -57 -19 -14 -32 -33 -36 -56 -4 -20 -17
-47 -30 -61 -12 -13 -25 -30 -27 -36 -9 -24 -16 1 -26 92 -6 52 -14 97 -18
100 -4 3 -9 49 -11 101 -2 52 -8 100 -14 107 -6 7 -7 20 -4 29 4 9 0 24 -8 33
-9 10 -17 52 -21 119 l-8 102 32 0 c17 0 31 5 31 11 0 6 7 9 15 5 8 -3 26 -1
40 4 13 5 27 5 29 1 6 -8 66 0 98 14 10 4 20 15 23 25 3 10 21 25 40 34 37 18
75 64 75 91 0 9 5 25 11 36 8 16 7 25 -4 37 -11 12 -13 22 -6 34 6 10 10 37
10 60 0 24 0 81 0 127 0 53 -4 87 -11 91 -9 5 -8 13 2 29 11 19 11 23 -3 31
-14 8 -15 17 -7 62 6 29 7 78 4 108 -9 75 -7 109 5 131 5 11 7 24 3 30 -11 19
-11 153 0 172 6 9 21 17 33 17 12 0 30 10 40 23 16 21 49 32 136 46 5 0 6 -7
3 -16z m-562 -42 c3 -5 39 -8 80 -6 41 1 79 -1 84 -4 8 -5 19 -58 23 -111 0
-8 5 -42 10 -75 7 -47 5 -71 -8 -113 -15 -48 -16 -55 -2 -62 11 -7 14 -22 12
-62 -11 -151 -9 -214 5 -237 11 -19 12 -31 3 -65 -7 -22 -11 -50 -10 -61 6
-55 -2 -125 -16 -139 -8 -8 -12 -22 -9 -30 4 -11 0 -16 -13 -16 -10 0 -24 -5
-29 -10 -7 -7 -19 -8 -37 -1 -21 8 -28 7 -35 -5 -6 -12 -14 -12 -40 -3 -18 6
-47 9 -64 7 -32 -5 -58 9 -58 32 0 6 -7 21 -15 34 -13 19 -13 31 -4 73 7 30 9
62 4 79 -5 16 -7 34 -6 39 8 28 7 243 -1 263 -5 14 -3 42 4 69 8 34 8 50 0 64
-8 13 -9 26 -2 44 11 30 2 165 -11 165 -5 0 -9 7 -9 15 0 8 4 15 10 15 5 0 9
8 8 18 -1 9 0 31 0 49 2 30 5 32 45 36 23 2 50 4 59 5 9 1 19 -2 22 -7z m976
-31 c0 -5 -4 -10 -10 -10 -5 0 -10 5 -10 10 0 6 5 10 10 10 6 0 10 -4 10 -10z
m2627 -52 c-3 -8 -6 -5 -6 6 -1 11 2 17 5 13 3 -3 4 -12 1 -19z m-685 -260
c-9 -9 -12 -7 -12 12 0 19 3 21 12 12 9 -9 9 -15 0 -24z m203 -68 c3 -5 -1
-10 -10 -10 -9 0 -13 5 -10 10 3 6 8 10 10 10 2 0 7 -4 10 -10z m-205 -20 c0
-5 -7 -10 -16 -10 -8 0 -12 5 -9 10 3 6 10 10 16 10 5 0 9 -4 9 -10z m202
-335 c0 -5 -5 -11 -11 -13 -6 -2 -11 4 -11 13 0 9 5 15 11 13 6 -2 11 -8 11
-13z m-3252 -45 c0 -5 -4 -10 -10 -10 -5 0 -10 5 -10 10 0 6 5 10 10 10 6 0
10 -4 10 -10z m3240 -66 c-9 -27 -9 -38 0 -49 10 -12 9 -20 -4 -40 -9 -14 -21
-25 -27 -25 -6 0 -9 -6 -6 -14 5 -13 -31 -31 -41 -21 -4 4 24 88 39 117 5 10
9 28 9 41 0 12 8 34 18 47 l17 25 3 -23 c2 -12 -2 -38 -8 -58z m-40 26 c0 -5
-2 -10 -4 -10 -3 0 -8 5 -11 10 -3 6 -1 10 4 10 6 0 11 -4 11 -10z m-1665
-319 c-7 -51 -40 -88 -62 -69 -7 6 -13 16 -13 23 0 8 -11 22 -24 32 -26 21
-66 81 -66 100 0 7 18 13 43 15 33 2 51 -3 85 -26 44 -28 44 -28 37 -75z
m-210 -8 c11 -21 35 -55 54 -76 32 -36 33 -38 16 -57 -9 -10 -33 -26 -53 -36
-21 -9 -49 -25 -64 -35 -14 -11 -28 -19 -30 -19 -2 0 -17 28 -33 63 -15 34
-32 72 -38 84 -11 24 -3 43 18 43 7 0 22 10 32 23 19 24 51 46 68 47 6 0 19
-17 30 -37z m1918 -4 c-6 -23 -69 -69 -94 -69 -9 0 -27 -11 -40 -25 -13 -13
-31 -25 -40 -25 -9 0 -47 -15 -85 -33 -124 -60 -247 -89 -442 -105 -64 -5 -96
-11 -102 -22 -8 -12 -11 -12 -27 2 -15 14 -31 16 -88 10 -63 -6 -70 -9 -76
-32 -6 -25 -6 -24 -10 5 -4 29 -5 30 -54 28 -131 -5 -390 -4 -578 1 -199 6
-209 6 -234 -14 -14 -11 -36 -20 -49 -20 -23 0 -32 -14 -16 -24 5 -3 39 -10
76 -16 49 -8 72 -8 81 0 10 8 16 7 22 -5 8 -14 52 -16 444 -11 496 6 771 17
812 34 16 7 41 12 56 12 15 0 31 4 37 9 5 5 32 14 60 19 28 6 88 29 134 52 46
22 90 40 97 40 8 0 16 6 19 14 3 8 19 16 35 20 18 3 46 23 66 46 20 22 43 40
51 40 18 0 66 -38 68 -53 0 -7 2 -20 2 -31 1 -11 7 -16 16 -13 9 4 17 -7 25
-33 6 -22 27 -56 46 -76 20 -21 35 -47 35 -61 0 -13 4 -31 9 -41 5 -9 14 -29
19 -44 6 -15 18 -25 27 -25 13 2 18 -7 19 -36 2 -27 12 -48 37 -73 24 -24 34
-44 34 -68 1 -18 12 -50 25 -72 31 -50 50 -109 40 -125 -5 -6 -2 -30 6 -52 8
-22 14 -47 14 -57 0 -9 9 -29 20 -43 15 -19 21 -41 21 -89 1 -35 6 -69 13 -77
6 -8 12 -26 12 -40 2 -34 7 -52 19 -71 5 -8 8 -26 7 -40 -2 -14 4 -42 13 -63
9 -21 15 -46 14 -55 -3 -21 9 -71 22 -94 5 -10 9 -31 9 -48 0 -17 5 -30 13
-30 6 0 12 -12 13 -27 1 -16 5 -56 9 -91 6 -49 11 -62 24 -60 9 2 15 -1 15 -7
-13 -104 -13 -125 -2 -125 9 0 13 -17 14 -48 0 -26 7 -60 14 -77 14 -33 17
-52 21 -165 1 -45 7 -79 15 -85 11 -9 25 -78 23 -112 -6 -94 7 -264 20 -273 9
-5 8 -18 -3 -50 -10 -28 -12 -49 -6 -60 6 -11 5 -32 -1 -55 -6 -21 -8 -46 -6
-57 7 -26 -16 -33 -45 -15 -38 24 -211 42 -410 42 -178 0 -187 1 -193 20 -3
11 -7 88 -10 170 -4 120 -8 152 -21 162 -13 9 -13 15 -4 33 18 33 3 158 -18
165 -15 4 -17 18 -14 92 2 59 -2 106 -13 143 -9 30 -16 70 -15 88 0 25 -4 35
-17 38 -16 4 -18 15 -16 74 1 50 -2 72 -13 81 -8 7 -12 20 -8 31 3 10 -1 40
-9 66 -9 26 -18 68 -22 95 -3 26 -11 47 -17 47 -6 0 -8 11 -3 27 5 21 1 31
-15 43 -16 12 -24 32 -29 80 -5 39 -14 67 -24 75 -10 7 -14 20 -11 33 5 17 0
22 -33 31 -57 16 -83 13 -104 -11 -22 -28 -25 -52 -4 -44 10 3 15 -1 15 -13 0
-11 10 -41 22 -68 25 -55 26 -58 37 -138 4 -33 22 -108 39 -166 18 -58 32
-125 32 -148 0 -28 6 -47 21 -62 17 -17 19 -28 13 -65 -4 -28 -2 -49 5 -58 9
-10 8 -21 -1 -42 -10 -22 -10 -28 0 -32 6 -2 12 -18 12 -37 0 -18 7 -50 16
-71 11 -26 15 -56 12 -92 -3 -37 -1 -55 8 -59 9 -3 12 -34 12 -106 0 -56 3
-147 6 -202 4 -55 7 -111 7 -125 0 -14 4 -29 8 -35 9 -12 8 -56 -3 -73 -4 -6
-2 -21 5 -34 9 -17 9 -23 -4 -32 -9 -6 -41 -28 -71 -49 -31 -21 -56 -44 -56
-50 0 -36 -198 -79 -430 -93 -58 -4 -110 -11 -116 -15 -6 -5 -14 -6 -18 -1 -4
4 -83 8 -174 9 -236 2 -372 11 -487 33 -140 27 -268 40 -425 45 -74 3 -191 12
-260 22 -69 9 -156 17 -195 19 -73 2 -115 7 -203 26 l-54 12 7 57 c4 31 3 65
-2 76 -5 10 -7 47 -5 81 4 62 4 64 29 57 13 -3 61 -10 106 -15 45 -6 102 -15
126 -22 37 -10 48 -9 77 7 23 12 34 25 34 41 0 24 -14 30 -120 44 -69 10 -244
41 -246 43 0 1 3 49 7 107 4 57 5 108 2 113 -9 15 -6 142 5 168 5 14 13 50 17
79 4 29 11 65 16 78 6 16 6 36 -1 58 -10 29 -8 36 10 54 15 15 20 30 17 48 -3
14 1 46 9 71 8 25 14 56 14 69 0 12 3 22 8 22 4 0 8 10 9 23 3 42 16 82 29 90
8 4 14 23 14 41 0 19 10 46 25 66 14 19 25 40 25 47 0 8 10 27 22 43 18 26 20
33 9 56 -6 15 -10 29 -7 31 7 8 -44 53 -61 53 -8 0 -32 -17 -53 -38 -29 -31
-38 -50 -44 -89 -3 -28 -13 -56 -21 -63 -7 -6 -17 -25 -20 -42 -4 -17 -18 -54
-31 -82 -13 -28 -24 -61 -24 -72 0 -12 -7 -27 -15 -34 -9 -7 -15 -29 -15 -51
0 -21 -5 -41 -10 -44 -6 -4 -9 -19 -8 -34 1 -15 -4 -41 -11 -58 -9 -23 -10
-37 -2 -51 8 -16 7 -21 -5 -26 -13 -5 -15 -15 -11 -41 4 -24 -1 -47 -17 -79
-13 -26 -19 -50 -15 -58 4 -7 5 -31 2 -54 -3 -24 0 -57 6 -75 7 -22 8 -36 1
-44 -6 -7 -8 -30 -4 -53 4 -28 2 -47 -9 -62 -10 -14 -13 -35 -10 -64 3 -26 1
-46 -6 -50 -14 -9 -15 -46 -1 -46 13 0 13 -47 0 -55 -6 -4 -8 -26 -4 -55 4
-27 4 -60 0 -74 -6 -24 -11 -26 -59 -26 -82 -1 -362 -45 -362 -57 0 -6 -3 -15
-8 -19 -4 -4 -7 -2 -7 4 0 15 -86 16 -95 2 -3 -5 -25 -10 -47 -10 -54 0 -148
-30 -148 -47 0 -7 -5 -13 -11 -13 -8 0 -10 18 -6 58 4 39 2 63 -5 70 -9 9 -9
15 -1 23 7 7 8 23 3 46 -5 20 -4 46 1 60 17 46 11 138 -12 167 -11 14 -17 31
-14 36 4 6 1 18 -7 27 -11 14 -10 15 10 9 12 -4 22 -4 23 1 0 4 2 41 4 81 2
40 9 89 15 110 8 30 7 39 -5 48 -13 10 -13 17 1 58 9 27 14 62 11 81 -3 18 -3
36 0 39 4 3 7 34 8 69 1 41 7 72 18 87 19 27 22 65 8 75 -5 3 2 17 16 31 20
20 22 28 12 40 -9 11 -9 22 4 52 9 20 16 52 16 70 0 17 7 39 15 48 12 12 13
20 5 35 -7 14 -7 24 0 33 5 6 15 33 21 59 8 40 8 51 -5 63 -16 17 -11 39 7 28
6 -4 9 -1 6 7 -3 8 8 38 23 68 22 41 26 57 18 67 -8 9 -8 14 -1 14 12 0 62
104 62 131 0 10 5 21 11 25 13 7 83 115 85 129 1 6 2 17 3 26 0 9 12 20 25 23
14 3 29 18 37 38 7 18 23 46 36 62 13 15 30 43 38 61 7 19 25 41 39 51 19 12
25 22 20 36 -4 15 4 28 34 53 22 19 47 50 56 70 18 36 40 46 50 20 4 -12 11
-13 32 -4 15 5 32 16 38 23 6 8 37 16 69 18 67 5 76 12 84 63 l6 38 -34 -6
c-19 -4 -59 -8 -91 -10 l-56 -4 0 71 c0 39 4 88 9 109 l10 37 79 0 c91 0 84 9
95 -120 8 -90 9 -120 4 -140 -6 -22 31 -18 208 18 143 30 192 45 253 77 99 53
142 81 151 97 5 10 15 18 22 18 19 0 116 73 117 87 0 7 7 10 15 7 8 -4 25 0
38 8 13 9 30 12 42 8 13 -5 24 -2 31 8 10 14 13 14 28 -1 15 -14 38 -17 142
-17 92 0 124 3 124 13 0 9 2 9 8 0 10 -16 151 -20 178 -5 15 8 32 8 55 2 25
-8 37 -6 50 6 15 13 17 13 23 -2 5 -12 14 -15 39 -10 17 4 37 6 42 6 101 -6
227 -5 231 1 3 5 14 3 24 -4 16 -9 24 -9 41 1 13 9 35 11 64 7 23 -4 51 -2 61
3 14 7 24 6 37 -3 17 -12 52 -12 142 -1 17 2 53 16 81 30 29 14 64 26 78 26
16 0 36 10 49 24 21 23 43 32 79 35 12 1 15 -5 11 -20z m-2385 -21 c19 -19 14
-26 -13 -20 -14 2 -25 11 -25 18 0 17 22 18 38 2z m253 -127 c6 -20 20 -51 30
-69 11 -19 17 -38 14 -42 -9 -14 -219 -70 -263 -70 -14 0 -23 12 -32 45 -11
41 -9 123 5 145 3 4 35 13 73 20 37 6 81 17 97 24 37 16 59 1 76 -53z m73 -6
c-4 -8 -8 -15 -10 -15 -2 0 -4 7 -4 15 0 8 4 15 10 15 5 0 7 -7 4 -15z m-674
-47 c0 -23 -5 -70 -11 -104 -13 -73 -22 -80 -99 -69 l-48 7 -4 56 c-2 31 1 71
8 87 6 17 14 38 17 48 5 14 18 17 72 17 l65 0 0 -42z m700 23 c0 -6 -4 -13
-10 -16 -5 -3 -10 1 -10 9 0 9 5 16 10 16 6 0 10 -4 10 -9z m1240 -141 c0 -5
-4 -10 -10 -10 -5 0 -10 5 -10 10 0 6 5 10 10 10 6 0 10 -4 10 -10z m-2350
-310 c0 -5 -4 -10 -10 -10 -5 0 -10 5 -10 10 0 6 5 10 10 10 6 0 10 -4 10 -10z
m-195 -900 c3 -5 1 -10 -4 -10 -6 0 -11 5 -11 10 0 6 2 10 4 10 3 0 8 -4 11
-10z m25 -96 c0 -8 -4 -12 -10 -9 -5 3 -10 10 -10 16 0 5 5 9 10 9 6 0 10 -7
10 -16z m4135 -204 c3 -5 1 -10 -4 -10 -6 0 -11 5 -11 10 0 6 2 10 4 10 3 0 8
-4 11 -10z m-105 -1080 c0 -5 -4 -10 -10 -10 -5 0 -10 5 -10 10 0 6 5 10 10
10 6 0 10 -4 10 -10z m-287 -24 c44 -3 77 0 77 5 0 6 7 6 18 0 9 -5 51 -13 92
-19 41 -5 101 -21 133 -35 52 -24 57 -28 48 -46 -6 -11 -11 -38 -11 -61 0 -35
-3 -41 -17 -36 -10 3 -44 10 -76 15 -32 6 -90 20 -129 32 -38 11 -75 18 -82
16 -7 -3 -23 1 -37 9 -13 7 -48 13 -77 14 -29 0 -69 7 -89 15 -24 10 -51 13
-82 9 -38 -5 -49 -3 -65 14 -17 20 -17 21 1 45 14 19 24 24 45 20 14 -3 34 -1
44 5 10 5 43 8 73 6 31 -2 91 -6 134 -8z m-3093 -11 c0 -8 4 -15 10 -15 5 0 9
-8 7 -17 -6 -37 -18 -44 -76 -43 -31 1 -60 1 -66 0 -26 -5 -81 -10 -210 -19
-168 -12 -259 -24 -342 -44 l-63 -15 0 29 c0 16 6 30 13 30 6 1 26 3 43 4 17
2 52 10 78 19 26 9 66 16 89 16 23 0 55 7 71 15 15 8 42 15 60 16 17 0 76 8
131 19 130 23 255 26 255 5z m-780 -115 c0 -5 -5 -10 -11 -10 -5 0 -7 5 -4 10
3 6 8 10 11 10 2 0 4 -4 4 -10z m771 -44 c21 -5 28 -13 33 -45 7 -46 66 -105
95 -96 13 4 26 -6 46 -35 15 -22 34 -40 41 -40 18 0 18 -24 -1 -60 -17 -33
-20 -34 -61 -21 -16 5 -50 12 -76 15 -45 5 -46 4 -62 -29 -10 -19 -20 -35 -24
-35 -5 0 -14 -16 -21 -36 -11 -30 -11 -38 0 -45 11 -6 11 -13 3 -26 -7 -12 -8
-27 -3 -42 5 -12 7 -53 5 -89 -3 -58 -7 -68 -32 -89 -16 -13 -46 -28 -66 -33
-21 -6 -42 -18 -47 -28 -6 -10 -11 -12 -11 -4 0 15 -47 16 -52 1 -2 -6 -14 -5
-32 5 -16 8 -34 12 -39 9 -5 -3 -27 0 -48 7 -29 10 -48 11 -73 3 -34 -10 -34
-10 -89 57 -30 37 -58 77 -62 89 -3 12 -10 19 -14 16 -11 -6 -31 40 -31 70 0
14 -4 25 -9 25 -4 0 -11 29 -13 63 -3 38 -13 75 -24 92 -10 16 -17 37 -16 48
2 10 -2 24 -8 32 -6 7 -8 25 -4 39 4 16 2 26 -5 26 -19 0 -12 49 9 60 11 6 20
18 20 28 0 12 3 13 8 5 6 -9 26 -7 87 8 44 12 116 22 160 24 44 2 87 4 95 5
173 14 260 25 260 32 0 5 8 7 18 5 9 -3 29 -8 43 -11z m279 -16 c19 -6 71 -13
115 -16 44 -3 96 -8 115 -11 19 -3 67 -6 107 -7 39 0 75 -4 79 -8 4 -5 57 -8
118 -8 115 -1 250 -12 371 -30 39 -6 102 -15 140 -20 39 -5 97 -14 130 -20 67
-12 58 -12 470 -4 364 7 392 9 428 23 16 6 45 11 65 11 l37 0 -24 -19 c-23
-18 -24 -20 -8 -36 9 -9 17 -20 17 -25 0 -13 -37 -22 -60 -15 -10 3 -45 1 -76
-4 -31 -6 -62 -8 -68 -3 -11 7 -84 8 -386 4 -91 -2 -221 -3 -290 -3 -69 0
-129 -4 -134 -9 -6 -6 -14 -6 -21 0 -6 5 -148 12 -315 15 -168 3 -327 10 -355
15 -27 6 -61 10 -75 10 -14 0 -86 4 -160 9 l-135 10 -40 46 c-22 25 -48 45
-57 45 -19 0 -50 38 -42 52 7 10 12 10 54 -2z m2740 -7 c52 -9 111 -17 130
-17 19 -1 37 -4 40 -7 7 -10 197 -59 226 -59 13 0 24 -2 24 -4 0 -2 3 -12 6
-20 4 -12 2 -15 -9 -10 -11 4 -17 -9 -26 -59 -6 -35 -11 -75 -11 -89 0 -14 -9
-33 -20 -43 -11 -10 -20 -23 -20 -29 0 -6 -10 -31 -22 -56 -22 -47 -24 -53
-26 -83 -1 -10 -15 -23 -32 -28 -16 -6 -32 -19 -35 -30 -4 -10 -11 -19 -16
-19 -5 0 -9 -14 -9 -30 0 -17 -4 -29 -9 -28 -5 2 -20 -12 -33 -31 -12 -19 -49
-49 -82 -67 -48 -26 -69 -32 -118 -31 -38 0 -63 -4 -68 -12 -6 -10 -17 -8 -48
8 -35 18 -42 18 -52 6 -9 -11 -17 -12 -30 -5 -10 6 -32 10 -49 10 -24 0 -31 4
-31 19 0 11 -5 23 -11 26 -6 4 -7 14 -3 24 15 33 27 401 13 401 -4 0 -13 16
-19 35 -14 42 -56 78 -82 70 -15 -5 -18 -1 -18 29 0 36 28 76 63 89 9 3 17 13
17 21 0 9 10 18 23 20 12 3 31 7 42 9 49 11 208 5 295 -10z m-1154 -230 c-10
-10 -19 5 -10 18 6 11 8 11 12 0 2 -7 1 -15 -2 -18z m-1199 -12 c37 -11 79
-20 93 -20 14 0 147 -2 295 -4 169 -3 274 -2 282 5 8 6 18 6 31 -1 11 -6 22
-8 25 -5 3 3 21 1 40 -4 20 -6 38 -7 42 -4 8 8 938 5 1002 -4 59 -7 59 -7 78
-114 11 -64 11 -77 -1 -91 -17 -19 -18 -36 -1 -42 10 -4 10 -7 0 -18 -16 -17
-17 -131 -1 -147 9 -9 9 -17 -2 -36 -17 -33 -1 -70 46 -110 32 -26 37 -28 60
-16 22 12 27 11 52 -13 16 -15 33 -27 40 -27 19 0 14 -28 -7 -47 -11 -9 -18
-20 -15 -24 2 -5 -2 -25 -11 -45 -8 -20 -16 -57 -16 -83 -1 -25 -6 -54 -11
-65 -7 -12 -6 -22 1 -29 7 -7 7 -16 0 -29 -6 -11 -8 -26 -5 -33 3 -8 -4 -40
-15 -72 -11 -32 -21 -78 -22 -103 -1 -25 -5 -47 -8 -50 -4 -3 -9 -25 -12 -50
-3 -25 -19 -85 -35 -135 -16 -49 -26 -91 -21 -93 11 -4 12 -42 1 -42 -14 0
-42 -69 -31 -76 6 -4 6 -11 -2 -21 -13 -15 -15 -22 -25 -120 -6 -61 -7 -62
-46 -78 -23 -9 -77 -20 -122 -26 -44 -5 -88 -12 -96 -15 -8 -3 -68 -7 -132
-10 -88 -3 -118 -1 -125 8 -4 7 -9 110 -9 228 -1 118 -7 256 -14 305 -6 50
-14 113 -16 140 -3 28 -8 57 -11 65 -3 8 -5 22 -4 31 1 9 -10 58 -24 107 -14
50 -25 104 -25 121 0 16 -6 34 -12 38 -7 4 -13 16 -14 26 -3 57 -6 69 -23 86
-10 10 -21 29 -24 42 -7 27 -121 158 -175 201 -42 33 -96 43 -234 42 -81 -1
-113 -5 -132 -17 -14 -10 -32 -17 -39 -17 -8 0 -22 -9 -32 -20 -10 -11 -22
-20 -27 -20 -18 0 -138 -98 -138 -112 0 -5 -13 -20 -28 -33 -25 -21 -53 -74
-80 -150 -5 -16 -19 -52 -30 -80 -36 -93 -62 -180 -62 -212 0 -17 -5 -35 -10
-38 -6 -4 -8 -15 -5 -25 3 -11 1 -29 -6 -41 -23 -45 -33 -149 -33 -384 -1
-301 12 -281 -164 -266 -69 6 -142 16 -161 21 l-36 10 -3 87 c-1 49 -7 90 -12
91 -6 2 -10 15 -10 28 0 13 -4 24 -8 24 -4 0 -13 17 -19 38 -19 64 -37 106
-56 124 -12 12 -15 26 -11 43 4 18 -9 52 -52 132 -32 59 -66 125 -77 146 -11
21 -26 41 -33 44 -8 3 -14 13 -14 22 0 9 -7 25 -15 35 -8 11 -15 33 -15 48 0
16 -11 46 -25 66 -14 21 -25 51 -25 69 0 23 -5 33 -16 33 -12 0 -14 7 -9 30 4
19 3 30 -4 30 -6 0 -11 15 -11 34 0 18 -6 49 -14 67 -24 61 -11 101 49 150 32
26 52 50 49 58 -2 7 4 28 15 46 16 27 18 43 12 99 -4 37 -4 69 1 72 4 3 8 16
8 30 0 19 4 24 18 20 63 -17 82 -17 89 1 9 24 23 33 55 33 19 0 35 11 57 39
27 34 29 42 21 71 -5 18 -8 36 -6 39 3 3 56 7 119 9 93 2 129 -1 184 -17z
m-1221 -458 c-10 -10 -19 5 -10 18 6 11 8 11 12 0 2 -7 1 -15 -2 -18z m24 -18
c0 -9 -6 -12 -15 -9 -8 4 -12 10 -9 15 8 14 24 10 24 -6z m2050 -76 c28 -6 64
-22 80 -36 17 -14 37 -22 45 -19 9 3 15 -1 15 -10 0 -9 14 -32 30 -51 57 -65
94 -152 122 -292 7 -35 18 -66 25 -68 7 -3 11 -8 9 -12 -2 -3 1 -33 6 -66 5
-33 9 -74 8 -92 0 -17 6 -38 15 -47 11 -11 14 -26 9 -55 -4 -22 -3 -48 1 -58
12 -30 19 -292 15 -535 0 -11 -48 -8 -99 5 l-44 12 -1 53 c0 28 1 52 4 52 8 0
4 385 -5 480 -4 47 -7 103 -6 126 1 23 -4 54 -10 70 -7 16 -13 43 -14 59 -6
96 -42 215 -65 215 -5 0 -10 10 -10 23 0 32 -17 56 -29 39 -6 -10 -16 0 -36
35 -15 26 -29 49 -30 51 -3 4 -144 23 -170 23 -66 0 -129 -13 -152 -31 -14
-11 -32 -20 -39 -20 -8 0 -14 -10 -14 -24 0 -16 -7 -26 -22 -30 -28 -7 -67
-58 -50 -64 21 -7 13 -32 -14 -42 -20 -8 -24 -14 -19 -31 5 -14 -1 -40 -16
-72 -18 -37 -21 -51 -11 -55 17 -5 15 -27 -3 -42 -9 -8 -13 -21 -10 -32 4 -10
1 -35 -6 -56 -7 -20 -13 -41 -14 -47 -1 -5 -6 -23 -13 -38 -15 -35 -15 -47 -1
-47 6 0 7 -6 2 -12 -13 -22 -26 -130 -27 -225 -1 -55 -6 -97 -13 -104 -8 -8
-9 -19 -3 -35 7 -18 5 -26 -7 -33 -14 -7 -15 -12 -4 -25 7 -8 9 -21 5 -27 -4
-7 -8 -35 -9 -64 -2 -61 -9 -75 -39 -75 -20 0 -25 6 -30 44 -4 24 -6 154 -5
288 2 211 5 250 22 298 11 30 19 70 18 88 -1 19 6 43 18 58 10 13 22 48 26 77
4 28 12 61 18 72 7 11 12 27 13 35 1 13 36 97 66 156 15 32 122 144 136 144
14 0 70 37 87 57 19 22 164 29 245 12z m1258 -288 c3 -8 -1 -12 -9 -9 -7 2
-15 10 -17 17 -3 8 1 12 9 9 7 -2 15 -10 17 -17z m-2158 -1121 c73 -5 138 -14
143 -19 4 -4 5 -20 1 -35 -6 -24 -10 -26 -63 -26 -50 0 -223 24 -259 35 -10 4
-9 11 3 34 8 17 21 28 28 26 6 -2 73 -9 147 -15z m1890 13 c0 -5 -4 -13 -8
-19 -10 -15 -177 -74 -209 -74 -14 0 -32 -8 -39 -17 -8 -11 -13 -13 -14 -6 0
9 -32 12 -122 10 l-123 -2 -3 31 -3 31 128 8 c70 4 180 15 243 25 141 21 150
22 150 13z m-1570 -85 c-1 -35 -5 -93 -9 -130 -5 -36 -6 -81 -2 -100 5 -23 2
-46 -10 -73 -10 -23 -20 -62 -22 -87 -4 -43 -11 -56 -68 -125 -12 -16 -39 -17
-39 -1 0 6 14 36 31 66 29 52 31 61 36 204 l6 149 29 15 c15 8 28 22 28 32 0
24 -28 62 -46 62 -8 0 -14 10 -14 25 0 23 4 25 40 25 l40 0 0 -62z m941 42
c27 -15 25 -56 -3 -64 -36 -9 -98 -7 -98 4 0 6 -7 10 -15 10 -20 0 -19 16 3
39 19 22 81 27 113 11z m653 -79 c14 -21 116 -81 130 -75 8 3 25 -1 38 -10 12
-9 41 -16 65 -16 24 0 48 -6 57 -15 8 -8 22 -15 30 -15 13 0 16 -12 16 -62 -1
-35 -5 -83 -10 -108 -5 -27 -5 -46 1 -48 24 -9 -3 -95 -42 -131 -53 -50 -97
-64 -224 -69 -123 -5 -155 -12 -155 -36 0 -14 -11 -12 -85 14 -11 4 -36 3 -55
-3 -19 -5 -55 -6 -80 -2 -25 4 -58 8 -75 9 -60 4 -74 15 -90 68 -8 29 -15 67
-15 85 0 27 -5 35 -26 43 -14 6 -23 14 -19 20 3 5 12 7 20 3 19 -7 20 24 0
115 -8 38 -13 88 -12 111 2 50 -4 48 167 55 160 7 225 18 286 49 53 28 70 32
78 18z m-2186 -22 c41 -1 99 -8 130 -15 73 -17 82 -17 82 1 0 8 5 15 10 15 6
0 10 -6 10 -14 0 -11 24 -16 100 -21 l99 -8 -5 -116 c-7 -154 -10 -172 -39
-211 -14 -19 -25 -40 -25 -48 0 -7 -12 -29 -26 -48 -19 -24 -34 -34 -54 -34
-15 0 -60 -7 -100 -16 -60 -14 -74 -14 -80 -3 -7 11 -13 11 -34 -1 -23 -12
-30 -11 -59 5 -21 11 -45 16 -62 13 -18 -4 -39 1 -59 13 -17 10 -39 19 -50 19
-10 0 -27 11 -38 25 -11 14 -25 25 -32 25 -17 0 -46 76 -46 121 0 20 -3 39 -7
42 -16 17 -11 151 8 194 18 42 19 43 66 43 26 1 62 7 78 15 17 7 37 11 45 9 8
-2 48 -4 88 -5z m2362 -14 c0 -8 -4 -15 -10 -15 -5 0 -10 7 -10 15 0 8 5 15
10 15 6 0 10 -7 10 -15z m-799 -65 c4 -14 7 -44 8 -67 1 -23 6 -45 11 -48 6
-3 7 -17 4 -31 -9 -33 27 -205 43 -211 7 -3 13 -9 13 -15 0 -5 -4 -6 -10 -3
-5 3 -10 -1 -10 -9 0 -19 -2 -19 -34 -5 -13 7 -30 24 -36 39 -6 16 -22 38 -36
51 -13 12 -24 28 -24 35 0 6 -7 25 -15 40 -8 16 -15 43 -15 60 0 16 -4 34 -9
40 -5 5 -11 37 -13 72 -4 60 -3 63 21 68 14 3 31 7 36 9 29 10 60 -1 66 -25z
m1029 -30 c0 -5 -4 -10 -10 -10 -5 0 -10 5 -10 10 0 6 5 10 10 10 6 0 10 -4
10 -10z m-1910 -30 c0 -5 -4 -10 -10 -10 -5 0 -10 5 -10 10 0 6 5 10 10 10 6
0 10 -4 10 -10z m-980 -146 c0 -8 -4 -12 -10 -9 -5 3 -10 10 -10 16 0 5 5 9
10 9 6 0 10 -7 10 -16z m1795 -103 c3 -5 1 -12 -5 -16 -5 -3 -10 1 -10 9 0 18
6 21 15 7z m-978 -193 c-3 -8 -6 -5 -6 6 -1 11 2 17 5 13 3 -3 4 -12 1 -19z
m1780 -44 c-9 -9 -28 6 -21 18 4 6 10 6 17 -1 6 -6 8 -13 4 -17z"/>
<path d="M4606 8453 c-31 -31 -66 -73 -77 -94 -11 -22 -24 -39 -29 -39 -5 0
-21 -21 -36 -47 -15 -27 -35 -61 -46 -76 -15 -21 -17 -32 -9 -40 16 -16 14
-32 -3 -18 -11 9 -18 0 -35 -47 -28 -75 -30 -121 -6 -138 11 -8 22 -14 27 -14
10 0 53 85 68 138 7 23 16 42 20 42 5 0 11 11 14 25 11 42 77 155 97 166 10 5
19 16 19 24 0 7 9 17 20 20 11 3 23 17 26 29 3 13 16 28 30 35 32 14 32 53 0
74 -22 15 -25 14 -80 -40z"/>
<path d="M5863 8208 c-21 -28 -20 -56 3 -84 13 -16 23 -33 24 -39 0 -5 11 -32
25 -59 14 -27 25 -62 25 -78 0 -21 6 -29 24 -34 43 -11 66 3 66 41 0 19 -4 36
-9 39 -4 3 -11 23 -14 43 -4 21 -22 61 -42 90 -19 29 -35 57 -35 63 0 6 -12
15 -26 20 -32 12 -30 12 -41 -2z"/>
<path d="M4350 7640 c-21 -13 -26 -224 -8 -295 13 -49 14 -50 48 -47 50 4 55
14 35 67 -15 39 -17 65 -12 165 l7 120 -28 0 c-15 0 -34 -5 -42 -10z m50 -80
c0 -5 -4 -10 -10 -10 -5 0 -10 5 -10 10 0 6 5 10 10 10 6 0 10 -4 10 -10z"/>
<path d="M6924 7043 c-3 -10 -12 -35 -20 -56 -15 -40 -18 -107 -8 -169 5 -30
11 -38 28 -38 22 0 61 54 50 71 -3 5 0 42 7 83 11 66 11 77 -4 100 -20 30 -45
34 -53 9z"/>
<path d="M6388 6635 c-24 -33 -23 -49 10 -87 15 -18 32 -42 38 -53 6 -11 22
-20 35 -20 21 0 24 5 27 38 3 32 -4 48 -38 93 -22 30 -44 54 -48 54 -4 0 -15
-11 -24 -25z"/>
<path d="M3665 6409 c-11 -18 -30 -49 -41 -70 -12 -21 -29 -45 -38 -54 -25
-25 -21 -71 7 -79 34 -9 47 -7 47 7 0 8 11 24 25 37 14 13 25 28 25 33 0 5 11
22 25 39 38 45 43 78 15 100 -31 25 -42 23 -65 -13z"/>
<path d="M4927 6393 c-1 -1 -31 -2 -67 -4 -86 -2 -173 -17 -236 -39 -29 -11
-54 -16 -58 -13 -7 7 -65 -16 -87 -34 -15 -12 -20 -11 -43 12 l-26 26 -26 -30
c-24 -28 -25 -38 -28 -159 -2 -71 -7 -135 -11 -142 -9 -14 -11 -51 -19 -270
-3 -74 -6 -144 -7 -155 0 -11 0 -29 1 -40 0 -11 -1 -56 -3 -100 -2 -44 0 -119
5 -167 7 -79 11 -90 40 -121 18 -20 48 -38 66 -42 17 -4 32 -11 32 -17 0 -5 6
-8 13 -5 6 2 21 0 31 -6 61 -31 226 -59 376 -63 275 -7 554 -5 605 6 281 56
299 62 340 97 22 19 40 37 40 41 0 4 5 14 10 22 36 55 50 173 45 370 -1 30 -1
69 1 85 2 40 3 146 2 225 0 36 -1 122 0 192 l0 126 -33 41 c-24 31 -37 40 -51
36 -14 -5 -19 -1 -19 12 0 14 -22 25 -102 50 -96 30 -156 39 -338 47 -25 1
-56 5 -70 9 -21 6 -379 15 -383 10z m550 -65 c-3 -8 -6 -5 -6 6 -1 11 2 17 5
13 3 -3 4 -12 1 -19z m112 -61 c48 -9 95 -17 103 -17 21 0 130 -67 141 -86 5
-9 6 -56 3 -103 -5 -56 -3 -104 4 -133 9 -33 9 -60 2 -94 -11 -49 -7 -78 9
-68 5 3 9 -2 9 -10 0 -9 -5 -16 -10 -16 -6 0 -10 -30 -9 -77 1 -43 0 -150 -2
-238 -4 -146 -7 -164 -27 -192 -27 -38 -160 -97 -211 -94 -19 1 -37 -3 -41 -9
-3 -5 -86 -15 -188 -22 -99 -6 -179 -15 -176 -20 3 -4 1 -8 -5 -8 -5 0 -11 5
-13 10 -5 17 -174 25 -193 10 -8 -7 -15 -8 -15 -2 0 5 -47 13 -107 17 -89 5
-289 45 -416 81 -9 3 -24 22 -33 42 -13 31 -16 79 -14 286 1 137 5 257 10 266
5 9 11 70 14 135 3 66 8 153 12 193 6 72 7 73 44 92 61 31 185 70 224 70 20 0
36 3 36 8 0 10 24 12 235 16 105 2 237 -1 295 -6 146 -14 203 -12 215 7 9 14
10 13 13 -3 2 -15 21 -22 91 -35z m301 -407 c0 -5 -5 -10 -11 -10 -5 0 -7 5
-4 10 3 6 8 10 11 10 2 0 4 -4 4 -10z m0 -124 c0 -3 -4 -8 -10 -11 -5 -3 -10
-1 -10 4 0 6 5 11 10 11 6 0 10 -2 10 -4z"/>
<path d="M4566 5375 c-14 -55 38 -70 253 -75 40 -1 85 -6 99 -11 37 -14 252
-8 285 8 28 14 36 44 15 61 -16 12 -317 22 -324 10 -8 -13 -24 -9 -24 5 0 8
-6 14 -12 14 -7 0 -74 3 -149 7 l-136 8 -7 -27z"/>
<path d="M5600 5340 c-14 -4 -65 -9 -115 -9 -125 -2 -138 -6 -131 -44 3 -17 8
-32 9 -34 11 -10 180 -14 227 -4 78 16 85 22 74 63 -10 35 -24 41 -64 28z"/>
<path d="M3358 5856 c-10 -7 -18 -26 -18 -43 0 -16 -7 -38 -15 -49 -8 -10 -15
-29 -15 -40 0 -12 -10 -34 -22 -49 -18 -23 -20 -33 -12 -64 7 -28 14 -37 34
-39 19 -2 30 5 44 30 11 18 18 39 17 46 -1 8 3 20 9 27 7 8 20 47 30 87 18 67
18 74 3 90 -19 21 -32 22 -55 4z"/>
<path d="M6754 5646 c-3 -13 -1 -56 4 -97 5 -41 10 -85 10 -99 3 -51 22 -207
32 -260 6 -30 13 -75 16 -100 9 -70 9 -71 43 -59 37 13 45 33 30 76 -6 19 -9
44 -6 56 5 20 -6 132 -31 327 -4 36 -8 86 -7 113 0 46 -1 48 -35 57 -48 13
-49 13 -56 -14z"/>
<path d="M3139 5203 c-18 -4 -29 -74 -50 -291 -5 -59 -14 -134 -20 -167 -7
-39 -7 -61 -1 -63 6 -2 4 -15 -4 -32 -8 -16 -15 -43 -15 -62 0 -18 -3 -78 -5
-133 -5 -109 6 -150 41 -150 16 0 21 12 32 85 7 47 13 119 14 160 2 41 6 80
10 85 9 13 20 112 40 373 8 112 9 160 0 178 -11 24 -13 25 -42 17z"/>
<path d="M3971 4701 c-16 -10 -8 -42 17 -63 20 -18 181 -38 227 -28 23 4 31
12 36 39 6 27 3 34 -15 40 -32 12 -249 22 -265 12z"/>
<path d="M5724 4677 c-10 -5 -20 -11 -21 -12 -1 0 2 -18 8 -39 10 -38 11 -38
52 -32 38 6 208 -5 327 -20 43 -6 45 -5 57 26 12 31 11 31 -31 49 -23 10 -60
22 -81 25 -69 12 -291 14 -311 3z"/>
<path d="M6928 4633 c-17 -41 -23 -220 -8 -238 36 -43 67 3 77 116 7 70 6 92
-7 117 -19 39 -47 41 -62 5z"/>
<path d="M5750 4311 c0 -4 -11 -13 -25 -19 -33 -15 -31 -28 8 -48 38 -21 202
-30 331 -19 76 6 86 9 102 33 33 50 19 54 -209 57 -114 2 -207 0 -207 -4z"/>
<path d="M3798 3092 c-14 -24 -15 -34 -3 -82 7 -30 16 -67 19 -82 6 -26 31
-58 44 -58 4 0 15 12 25 26 18 24 18 29 2 99 -14 66 -44 125 -64 125 -3 0 -14
-12 -23 -28z"/>
<path d="M6284 2958 c-18 -8 -22 -22 -27 -96 -7 -95 -3 -104 48 -100 30 3 30
3 35 76 5 79 -4 132 -23 131 -7 0 -21 -5 -33 -11z"/>
<path d="M3950 2604 c-14 -35 -13 -49 5 -64 8 -7 15 -18 15 -24 0 -29 72 -146
89 -146 3 0 12 14 20 31 22 50 -9 146 -64 202 -35 34 -53 34 -65 1z"/>
<path d="M6155 2410 c-37 -6 -43 -26 -44 -151 -1 -102 4 -114 47 -102 16 4 21
19 31 92 19 150 15 170 -34 161z"/>
</g>
</svg>
