<svg id="SvgjsSvg1001" width="288" height="288" xmlns="http://www.w3.org/2000/svg" version="1.1" xmlns:xlink="http://www.w3.org/1999/xlink" xmlns:svgjs="http://svgjs.com/svgjs"><defs id="SvgjsDefs1002"></defs><g id="SvgjsG1008" transform="matrix(0.9167,0,0,0.9167,11.705739061832446,11.9908064321518)"><svg xmlns="http://www.w3.org/2000/svg" width="288" height="288" version="1.0" viewBox="0 0 400 400"><g transform="matrix(.1 0 0 -.1 0 400)" fill="#d4f52a" class="color000 svgShape"><path d="M1472 3544 c-194 -35 -370 -123 -534 -267 -117 -103 -325 -368 -359-456 -25 -67 -42 -203 -37 -288 4 -62 4 -63 -22 -63 -62 0 -99 -89 -76 -180
l14 -53 -54 -82 c-64 -99 -64 -98 -120 -305 -26 -92 -63 -202 -86 -249 -38
-80 -39 -85 -22 -98 48 -35 134 -6 189 63 22 27 42 53 46 58 4 5 13 -11 19
-35 21 -81 79 -189 106 -199 14 -6 29 -10 33 -10 5 0 11 48 15 106 6 95 19
183 32 223 9 29 27 -8 30 -61 8 -205 22 -318 42 -353 12 -20 25 -54 28 -75 l6
-39 -58 -16 c-183 -51 -209 -61 -212 -79 -9 -43 176 -164 233 -154 14 3 25 2
25 -2 0 -5 19 -18 43 -31 30 -17 65 -25 122 -29 l80 -5 3 -39 c4 -51 -15 -198
-33 -249 -12 -36 -12 -42 3 -54 38 -31 127 -65 182 -70 58 -6 60 -5 96 31 19
19 34 41 32 48 -3 9 -36 15 -93 20 -48 3 -91 10 -96 15 -5 5 -4 43 2 89 6 43
14 106 17 139 l7 60 55 12 c30 6 101 12 158 12 l102 1 0 -35 c0 -20 -5 -79
-11 -133 -13 -115 -5 -196 21 -222 23 -23 77 -39 150 -46 65 -6 114 18 122 60
8 39 -13 50 -83 42 -34 -3 -72 -3 -85 0 -23 6 -24 8 -24 113 1 58 6 135 13
171 15 78 12 77 198 79 l126 1 7 -42 c4 -23 6 -110 5 -192 l-1 -151 59 -18
c32 -10 87 -19 121 -20 56 -2 66 1 83 22 23 28 25 77 3 85 -9 3 -42 6 -74 6
-32 0 -62 5 -65 10 -14 22 -17 159 -5 227 l12 72 66 6 c37 3 102 10 146 15 43
6 82 8 86 5 17 -11 30 -110 30 -229 l0 -123 77 -7 c193 -16 277 -4 294 43 9
21 7 29 -11 43 -18 14 -42 18 -119 18 -53 0 -103 5 -111 10 -21 13 -28 231 -8
247 7 5 51 18 98 27 47 9 101 23 120 31 19 7 48 16 64 20 15 3 26 8 23 11 -3
3 2 22 10 42 22 53 20 330 -2 396 -9 26 -14 60 -10 75 3 14 -1 85 -8 156 -8
72 -13 141 -12 155 2 14 4 28 4 32 2 15 65 80 92 93 15 8 29 25 31 37 4 28 32
35 138 37 155 2 353 -59 509 -157 l84 -53 56 28 c125 63 161 228 100 466 -21
84 -101 267 -116 267 -5 0 -47 -16 -93 -36 -296 -124 -597 -128 -754 -8 -59
45 -139 195 -130 242 4 18 -4 57 -19 103 -14 41 -27 94 -30 117 -8 64 -64 141
-166 226 -103 85 -202 147 -281 175 -30 10 -85 32 -121 49 -85 38 -152 58
-269 77 -112 18 -159 18 -258 -1z m1059 -917 c51 -117 94 -162 207 -214 118
-55 240 -76 397 -69 72 3 142 8 158 12 27 6 27 6 27 -42 0 -27 9 -89 20 -138
11 -50 20 -94 20 -98 0 -5 -13 -2 -29 7 -16 8 -69 27 -118 42 -79 24 -104 27
-248 27 -151 1 -164 -1 -237 -27 l-78 -28 -118 15 c-242 32 -408 86 -765 247
-120 55 -223 99 -228 99 -21 0 -7 18 19 25 15 3 90 42 167 85 264 149 290 156
570 155 l194 0 42 -98z m1028 -243 c38 -49 56 -122 56 -234 0 -86 -3 -111 -18
-134 l-19 -28 -28 27 c-62 60 -109 188 -113 313 l-2 67 34 17 c39 19 57 13 90
-28z" fill="#d4f52a" class="color000 svgShape"></path><path d="M2023 2625c-31-13-33-17-33-67 0-63 18-94 61-103 48-11 69 15 69 84 0 104-18 120-97 86zM2300 2612c-28-22-38-104-18-142 27-51 96-30 118 35 29 87-37 158-100 107z" fill="#d4f52a" class="color000 svgShape"></path></g></svg></g></svg>